<svg width="1200" height="680" viewBox="0 0 1200 680" fill="none" xmlns="http://www.w3.org/2000/svg">
  <defs>
    <linearGradient id="ar1" x1="125" y1="96" x2="980" y2="575" gradientUnits="userSpaceOnUse">
      <stop stop-color="#22D3EE" stop-opacity="0.22"/>
      <stop offset="0.46" stop-color="#F472B6" stop-opacity="0.18"/>
      <stop offset="1" stop-color="#FBBF24" stop-opacity="0.2"/>
    </linearGradient>
  </defs>
  <rect width="1200" height="680" fill="transparent"/>
  <path d="M-40 423C98 360 241 335 390 350C541 366 685 424 837 437C964 449 1086 429 1210 393V515C1085 549 963 565 839 557C682 546 541 488 386 467C237 446 91 460 -40 522V423Z" fill="url(#ar1)"/>
  <path d="M-15 242C120 204 257 202 391 233C503 259 611 305 725 325C854 347 989 336 1118 283L1220 241V329C1082 396 939 420 796 406C668 394 548 345 422 319C278 289 129 292 -15 340V242Z" fill="url(#ar1)" fill-opacity="0.72"/>
  <g opacity="0.4" stroke="#E2E8F0" stroke-width="1">
    <path d="M148 140V560"/>
    <path d="M378 120V586"/>
    <path d="M612 113V590"/>
    <path d="M840 120V574"/>
    <path d="M1040 158V542"/>
    <path d="M90 190H1108"/>
    <path d="M70 304H1133"/>
    <path d="M85 422H1122"/>
    <path d="M110 536H1095"/>
  </g>
</svg>
