<svg width="720" height="450" viewBox="0 0 720 450" fill="none" xmlns="http://www.w3.org/2000/svg">
  <defs>
    <linearGradient id="gcBg" x1="48" y1="42" x2="665" y2="410" gradientUnits="userSpaceOnUse">
      <stop stop-color="#172B47"/>
      <stop offset="0.52" stop-color="#2A2A4C"/>
      <stop offset="1" stop-color="#1B2338"/>
    </linearGradient>
    <linearGradient id="gcGift" x1="278" y1="165" x2="455" y2="329" gradientUnits="userSpaceOnUse">
      <stop stop-color="#FDE68A"/>
      <stop offset="1" stop-color="#F59E0B"/>
    </linearGradient>
    <linearGradient id="gcRibbon" x1="367" y1="152" x2="367" y2="336" gradientUnits="userSpaceOnUse">
      <stop stop-color="#F472B6"/>
      <stop offset="1" stop-color="#DB2777"/>
    </linearGradient>
  </defs>

  <rect x="1" y="1" width="718" height="448" rx="24" fill="url(#gcBg)" stroke="rgba(226,232,240,0.24)"/>

  <g opacity="0.5">
    <circle cx="124" cy="96" r="64" fill="#38BDF8" fill-opacity="0.16"/>
    <circle cx="607" cy="106" r="76" fill="#F59E0B" fill-opacity="0.16"/>
    <circle cx="586" cy="346" r="82" fill="#F472B6" fill-opacity="0.15"/>
  </g>

  <path d="M86 334C118 302 170 300 205 329L278 390H86V334Z" fill="#223558"/>
  <path d="M634 332C602 300 551 300 516 328L441 390H634V332Z" fill="#223558"/>

  <g>
    <rect x="275" y="166" width="184" height="166" rx="18" fill="url(#gcGift)"/>
    <rect x="357" y="166" width="20" height="166" fill="url(#gcRibbon)"/>
    <rect x="275" y="238" width="184" height="18" fill="url(#gcRibbon)"/>
    <path d="M367 141C353 118 320 116 303 136C287 156 297 190 367 230C437 190 447 156 431 136C414 116 381 118 367 141Z" fill="#F472B6"/>
  </g>

  <g opacity="0.95">
    <path d="M234 260C210 246 179 253 165 278L146 311L240 344L256 303C269 280 260 255 234 260Z" fill="#F1F5F9"/>
    <path d="M485 260C510 246 541 253 556 278L574 311L480 344L463 303C450 280 460 255 485 260Z" fill="#F1F5F9"/>
  </g>

  <g opacity="0.95" fill="#E2E8F0">
    <circle cx="124" cy="104" r="5"/>
    <circle cx="604" cy="128" r="4"/>
    <circle cx="584" cy="330" r="4"/>
    <circle cx="164" cy="145" r="3.5"/>
    <circle cx="541" cy="76" r="3.5"/>
  </g>

  <text x="48" y="62" fill="#E2E8F0" font-family="Manrope, sans-serif" font-size="16" letter-spacing="2">GLOBAL GIFT MOMENT</text>
  <text x="48" y="86" fill="#94A3B8" font-family="Manrope, sans-serif" font-size="13">Cultural empathy in every delivery</text>
</svg>
