<svg width="720" height="450" viewBox="0 0 720 450" fill="none" xmlns="http://www.w3.org/2000/svg">
  <defs>
    <linearGradient id="heroBg" x1="40" y1="36" x2="674" y2="406" gradientUnits="userSpaceOnUse">
      <stop stop-color="#132844"/>
      <stop offset="1" stop-color="#1A2D4A"/>
    </linearGradient>
    <linearGradient id="glowA" x1="120" y1="80" x2="620" y2="390" gradientUnits="userSpaceOnUse">
      <stop stop-color="#22D3EE" stop-opacity="0.24"/>
      <stop offset="1" stop-color="#2DD4BF" stop-opacity="0.18"/>
    </linearGradient>
  </defs>

  <rect x="1" y="1" width="718" height="448" rx="24" fill="url(#heroBg)" stroke="#475569"/>
  <path d="M94 168C176 126 260 116 343 128C424 140 503 176 587 186" stroke="#67E8F9" stroke-opacity="0.35" stroke-width="3" stroke-linecap="round"/>
  <path d="M104 242C196 204 286 198 374 214C461 229 545 266 621 292" stroke="#99F6E4" stroke-opacity="0.32" stroke-width="3" stroke-linecap="round"/>
  <path d="M84 316C158 286 236 278 312 288C398 300 482 336 566 354" stroke="#67E8F9" stroke-opacity="0.24" stroke-width="2.6" stroke-linecap="round"/>

  <circle cx="148" cy="164" r="6" fill="#A5F3FC"/>
  <circle cx="322" cy="136" r="5" fill="#A5F3FC"/>
  <circle cx="512" cy="178" r="6" fill="#99F6E4"/>
  <circle cx="214" cy="224" r="5" fill="#A5F3FC"/>
  <circle cx="410" cy="232" r="5" fill="#A5F3FC"/>
  <circle cx="592" cy="284" r="6" fill="#99F6E4"/>

  <ellipse cx="364" cy="250" rx="222" ry="132" fill="url(#glowA)"/>

  <rect x="286" y="186" width="156" height="126" rx="16" fill="#E2E8F0" fill-opacity="0.95"/>
  <path d="M364 171V312" stroke="#22D3EE" stroke-width="9" stroke-linecap="round"/>
  <path d="M286 248H442" stroke="#22D3EE" stroke-width="9" stroke-linecap="round"/>
  <path d="M262 348C286 317 326 300 364 300C402 300 443 317 466 348" fill="#304A70"/>

  <text x="40" y="55" fill="#E2E8F0" font-family="Manrope, sans-serif" font-size="16" letter-spacing="2">GLOBAL GIFT INTELLIGENCE</text>
  <text x="40" y="79" fill="#AFC2DC" font-family="Manrope, sans-serif" font-size="13">Cross-cultural confidence for every delivery</text>
</svg>
