<svg width="1440" height="760" viewBox="0 0 1440 760" fill="none" xmlns="http://www.w3.org/2000/svg">
  <defs>
    <linearGradient id="wmGlow" x1="80" y1="120" x2="1290" y2="620" gradientUnits="userSpaceOnUse">
      <stop stop-color="#38BDF8" stop-opacity="0.22"/>
      <stop offset="0.42" stop-color="#FBBF24" stop-opacity="0.12"/>
      <stop offset="1" stop-color="#F472B6" stop-opacity="0.2"/>
    </linearGradient>
  </defs>
  <rect width="1440" height="760" fill="transparent"/>
  <g opacity="0.85" fill="url(#wmGlow)">
    <path d="M138 245C192 206 252 194 314 198C369 202 420 224 467 245C514 267 564 285 620 291C662 295 704 290 746 280C788 271 830 257 873 252C928 245 983 255 1033 274C1082 293 1124 320 1168 347C1198 366 1227 387 1261 402C1295 416 1334 423 1372 416V465C1336 473 1298 468 1262 456C1218 441 1181 412 1142 389C1095 362 1047 339 995 330C946 322 896 327 847 337C799 347 750 362 699 367C633 374 569 356 511 332C454 308 401 280 343 266C281 250 214 255 138 301V245Z"/>
    <path d="M202 478C236 446 276 427 320 418C367 409 416 410 463 419C510 428 554 444 600 454C647 464 696 467 743 460C789 454 833 439 878 431C923 422 971 420 1016 428C1061 436 1103 455 1142 480C1174 500 1203 525 1238 543C1276 563 1318 575 1364 575V620C1310 620 1260 608 1215 587C1169 566 1131 534 1087 511C1048 491 1004 478 958 474C911 470 866 476 821 486C773 496 726 511 676 516C621 522 567 514 516 498C463 482 413 460 360 452C308 444 254 450 202 487V478Z"/>
    <path d="M67 361C98 344 132 336 168 338C204 339 238 350 271 365C305 381 336 399 371 410C406 422 445 426 481 420C516 414 549 398 582 384C615 371 650 361 686 357C724 352 763 355 799 366C835 377 867 398 900 417C933 435 968 452 1005 460C1041 468 1080 466 1117 455C1153 445 1188 426 1224 413C1264 399 1307 390 1351 391V422C1311 422 1271 432 1234 447C1198 462 1165 483 1128 495C1086 510 1040 513 995 505C949 496 908 475 868 453C832 434 795 418 756 411C716 405 675 410 638 423C602 436 568 455 532 470C488 488 440 498 393 494C347 491 304 474 263 457C232 444 199 433 165 430C130 427 96 434 67 450V361Z"/>
  </g>
  <g opacity="0.45" stroke="#E2E8F0" stroke-width="1.2">
    <path d="M188 214L188 578"/>
    <path d="M468 182L468 606"/>
    <path d="M749 172L749 612"/>
    <path d="M1028 186L1028 595"/>
    <path d="M1264 236L1264 562"/>
    <path d="M94 272H1354"/>
    <path d="M76 368H1369"/>
    <path d="M79 468H1361"/>
    <path d="M108 552H1339"/>
  </g>
</svg>
