<svg width="64" height="64" viewBox="0 0 64 64" fill="none" xmlns="http://www.w3.org/2000/svg">
  <defs>
    <linearGradient id="markBorder" x1="8" y1="8" x2="56" y2="56" gradientUnits="userSpaceOnUse">
      <stop stop-color="#67E8F9"/>
      <stop offset="1" stop-color="#06B6D4"/>
    </linearGradient>
    <linearGradient id="markOrbit" x1="16" y1="18" x2="48" y2="46" gradientUnits="userSpaceOnUse">
      <stop stop-color="#7DD3FC"/>
      <stop offset="1" stop-color="#22D3EE"/>
    </linearGradient>
    <linearGradient id="markGift" x1="24" y1="26" x2="40" y2="44" gradientUnits="userSpaceOnUse">
      <stop stop-color="#F8FAFC"/>
      <stop offset="1" stop-color="#E2E8F0"/>
    </linearGradient>
  </defs>

  <rect x="6" y="6" width="52" height="52" rx="16" fill="#0C1A31" stroke="url(#markBorder)" stroke-width="1.8"/>
  <circle cx="32" cy="33" r="15" stroke="url(#markOrbit)" stroke-width="1.4" opacity="0.78"/>
  <path d="M18 33H46" stroke="url(#markOrbit)" stroke-width="1.2" stroke-linecap="round" opacity="0.85"/>
  <path d="M32 18.5C28.7 22 28.3 43.3 32 47.5" stroke="url(#markOrbit)" stroke-width="1.2" stroke-linecap="round" opacity="0.72"/>
  <path d="M32 18.5C35.3 22 35.7 43.3 32 47.5" stroke="url(#markOrbit)" stroke-width="1.2" stroke-linecap="round" opacity="0.72"/>

  <path d="M15 24C22 16.8 42 16.8 49 24" stroke="#22D3EE" stroke-width="1.4" stroke-linecap="round" opacity="0.86"/>
  <path d="M15 42C22 49.2 42 49.2 49 42" stroke="#22D3EE" stroke-width="1.4" stroke-linecap="round" opacity="0.86"/>
  <circle cx="15" cy="24" r="2.1" fill="#7DD3FC"/>
  <circle cx="49" cy="42" r="2.1" fill="#22D3EE"/>

  <rect x="22" y="29" width="20" height="14" rx="3" fill="url(#markGift)"/>
  <rect x="20.5" y="25" width="23" height="6" rx="3" fill="#F8FAFC"/>
  <path d="M32 25V43" stroke="#0EA5E9" stroke-width="2" stroke-linecap="round"/>
  <path d="M22 33H42" stroke="#0EA5E9" stroke-width="2" stroke-linecap="round"/>
  <path d="M32 25C29.8 22.1 26.4 22 24.4 24.6C26.9 26.2 29.6 26.1 32 25Z" fill="#38BDF8"/>
  <path d="M32 25C34.2 22.1 37.6 22 39.6 24.6C37.1 26.2 34.4 26.1 32 25Z" fill="#22D3EE"/>
</svg>
